<?xml version="1.0" encoding="utf-8"?>
<!-- Generator: Adobe Illustrator 16.0.0, SVG Export Plug-In . SVG Version: 6.00 Build 0)  -->
<!DOCTYPE svg PUBLIC "-//W3C//DTD SVG 1.1//EN" "http://www.w3.org/Graphics/SVG/1.1/DTD/svg11.dtd">
<svg version="1.1" id="Layer_1" xmlns="http://www.w3.org/2000/svg" xmlns:xlink="http://www.w3.org/1999/xlink" x="0px" y="0px"
	 width="108px" height="108px" viewBox="18 18 108 108" enable-background="new 18 18 108 108" xml:space="preserve">
<g>
	<path d="M110.84,92.568c-6.477,0-9.716-3.23-9.716-3.23s-3.23-3.238-9.705-3.238c-6.477,0-9.708,3.238-9.708,3.238
		s-3.238,3.23-9.712,3.23c-6.47,0-9.708-3.23-9.708-3.23S59.052,86.1,52.583,86.1c-6.477,0-9.714,3.238-9.714,3.238
		s-3.23,3.23-9.708,3.23c-6.467,0-9.706-3.23-9.706-3.23v6.475c0,0,3.236,3.232,9.706,3.232c6.477,0,9.708-3.232,9.708-3.232
		s3.237-3.236,9.714-3.236c6.467,0,9.708,3.236,9.708,3.236s3.237,3.232,9.708,3.232c6.475,0,9.712-3.232,9.712-3.232
		s3.231-3.236,9.708-3.236c6.475,0,9.705,3.236,9.705,3.236s3.239,3.232,9.716,3.232c6.468,0,9.706-3.232,9.706-3.232v-6.475
		C120.546,89.338,117.308,92.568,110.84,92.568z"/>
	<path d="M101.124,102.281c0,0-3.23-3.236-9.705-3.236c-6.477,0-9.709,3.236-9.709,3.236s-3.237,3.233-9.711,3.233
		c-6.47,0-9.708-3.233-9.708-3.233s-3.239-3.236-9.708-3.236c-6.477,0-9.714,3.236-9.714,3.236s-3.23,3.233-9.708,3.233
		c-6.467,0-9.706-3.233-9.706-3.233v6.477c0,0,3.236,3.231,9.706,3.231c6.477,0,9.708-3.231,9.708-3.231s3.237-3.239,9.714-3.239
		c6.467,0,9.708,3.239,9.708,3.239s3.237,3.231,9.708,3.231c6.475,0,9.711-3.231,9.711-3.231s3.232-3.239,9.709-3.239
		c6.475,0,9.705,3.239,9.705,3.239s3.239,3.231,9.716,3.231c6.468,0,9.706-3.231,9.706-3.231v-6.477c0,0-3.238,3.233-9.706,3.233
		C104.363,105.513,101.124,102.281,101.124,102.281z"/>
	<polygon fill="none" stroke="#231F20" stroke-width="3" stroke-miterlimit="10" points="36.754,68.257 36.754,76.394 
		41.196,76.394 41.196,68.257 54.514,68.257 47.303,58.64 52.291,58.64 45.634,49.76 48.963,49.76 42.303,40.883 45.63,40.883 
		38.975,32.011 32.322,40.883 35.65,40.883 28.995,49.76 32.324,49.76 25.671,58.64 30.666,58.64 23.454,68.257 	"/>
	<polygon fill="none" stroke="#231F20" stroke-width="3" stroke-miterlimit="10" points="100.688,68.257 100.688,76.394 
		105.129,76.394 105.129,68.257 118.447,68.257 111.236,58.64 116.223,58.64 109.567,49.76 112.896,49.76 106.236,40.883 
		109.564,40.883 102.907,32.011 96.255,40.883 99.583,40.883 92.93,49.76 96.256,49.76 89.604,58.64 94.599,58.64 87.387,68.257 	
		"/>
	<polygon fill="none" stroke="#231F20" stroke-width="3" stroke-miterlimit="10" points="69.626,74.578 69.626,82.715 
		74.068,82.715 74.068,74.578 87.387,74.578 80.176,64.961 85.162,64.961 78.508,56.081 81.834,56.081 75.176,47.204 78.503,47.204 
		71.848,38.332 65.193,47.204 68.522,47.204 61.868,56.081 65.196,56.081 58.544,64.961 63.537,64.961 56.327,74.578 	"/>
</g>
<text transform="matrix(1 0 0 1 68.4004 132.4805)" display="none" enable-background="new    " font-family="'HelveticaNeue-Bold'" font-size="5.76">Created by Ed Piel</text>
<text transform="matrix(1 0 0 1 68.4004 138.2402)" display="none" enable-background="new    " font-family="'HelveticaNeue-Bold'" font-size="5.76">from the Noun Project</text>
</svg>
