<?xml version="1.0" encoding="utf-8"?>
<!-- Generator: Adobe Illustrator 16.0.0, SVG Export Plug-In . SVG Version: 6.00 Build 0)  -->
<!DOCTYPE svg PUBLIC "-//W3C//DTD SVG 1.1//EN" "http://www.w3.org/Graphics/SVG/1.1/DTD/svg11.dtd">
<svg version="1.1" id="Layer_1" xmlns="http://www.w3.org/2000/svg" xmlns:xlink="http://www.w3.org/1999/xlink" x="0px" y="0px"
	 width="108px" height="108px" viewBox="18 18 108 108" enable-background="new 18 18 108 108" xml:space="preserve">
<path stroke="#231F20" stroke-miterlimit="10" d="M81.85,92.736l-2.879-4.723l12.324-7.604l2.881,4.723L81.85,92.736z
	 M81.734,88.705l0.807,1.266l8.869-5.529l-0.807-1.268L81.734,88.705z M52.703,42.048l-7.834-12.672l9.101-5.646l7.834,12.672
	L52.703,42.048z M47.634,30.066l5.76,9.217l5.762-3.571l-5.762-9.216L47.634,30.066z M79.199,83.75l-4.723-7.604l7.947-4.954
	l4.725,7.604L79.199,83.75z M77.24,76.723l2.65,4.264l4.607-2.766l-2.648-4.262L77.24,76.723z M71.479,80.295l-5.528-8.986
	l1.036-0.576c1.729-1.037,2.305-3.341,1.152-4.954c-0.691-1.036-1.845-1.728-3.111-1.728c-0.69,0-1.383,0.23-1.844,0.576l-0.92,0.69
	l-14.056-22.81l16.128-9.907l23.272,37.786L71.479,80.295z M68.716,72l3.456,5.529l12.674-7.834L63.647,35.251L50.858,43.2
	L62.84,62.554c0.69-0.346,1.382-0.461,2.188-0.461c1.957,0,3.802,1.037,4.838,2.649c0.807,1.267,1.037,2.765,0.691,4.263
	C70.213,70.157,69.638,71.192,68.716,72z M70.789,99.764c1.037,0,1.959,0.922,1.959,1.959c0,1.035-0.922,1.957-1.959,1.957
	s-1.958-0.922-1.958-1.957C68.831,100.686,69.752,99.764,70.789,99.764 M70.789,97.805c-2.188,0-3.917,1.729-3.917,3.918
	s1.729,3.916,3.917,3.916c2.189,0,3.918-1.729,3.918-3.916C74.822,99.533,72.979,97.805,70.789,97.805L70.789,97.805z
	 M65.028,73.268c-1.959,0-3.801-1.037-4.723-2.649c-1.613-2.65-0.807-6.106,1.844-7.72c0.92-0.575,1.957-0.806,2.994-0.806
	c1.959,0,3.803,1.037,4.724,2.649c1.612,2.649,0.807,6.105-1.843,7.718C67.103,73.037,66.065,73.268,65.028,73.268z M65.028,64.051
	c-0.69,0-1.383,0.23-1.844,0.576c-1.728,1.037-2.188,3.341-1.15,4.954c0.691,1.037,1.843,1.728,3.109,1.728
	c0.691,0,1.383-0.229,1.844-0.576c1.729-1.037,2.188-3.341,1.152-4.954C67.448,64.742,66.296,64.051,65.028,64.051z M77.012,102.412
	l-0.348-1.727c-0.229-1.498-1.15-2.996-2.533-3.804l-1.268-0.807l22.924-14.169l0.576,0.806c0.807,1.384,0.576,3.111-0.689,4.033
	L77.012,102.412z M76.436,96.191c0.689,0.807,1.383,1.613,1.729,2.649l16.242-13.594c0.115-0.115,0.23-0.229,0.346-0.347
	L76.436,96.191z M70.789,109.67c-4.378,0-7.948-3.57-7.948-7.947c0-4.379,3.57-7.949,7.948-7.949c4.379,0,7.949,3.57,7.949,7.949
	C78.738,106.1,75.168,109.67,70.789,109.67z M70.789,95.846c-3.226,0-5.99,2.65-5.99,5.992c0,3.225,2.649,5.99,5.99,5.99
	c3.229,0,5.99-2.65,5.99-5.99C76.779,98.496,74.131,95.846,70.789,95.846z M77.012,114.049H63.187v-4.609
	c-5.875-1.727-10.599-5.414-14.055-10.942c-7.373-11.979-3.341-27.878,8.985-35.482l3.687-2.304l2.073,3.341l-0.808,0.576
	c-1.611,1.037-2.072,3.226-1.035,4.954c0.691,1.037,1.843,1.728,3.109,1.728c0.576,0,1.268-0.115,1.844-0.46l0.807-0.461
	l2.073,3.342l-3.687,2.303c-5.068,3.111-6.682,9.217-3.802,13.824l0.115,0.115c1.382,2.073,3.456,3.688,5.875,4.493l2.534,0.808
	l-2.649,0.805c-2.188,1.037-3.571,3.342-3.571,5.646c0,3.34,2.649,6.565,5.875,6.565c2.19,0,5.187-0.69,5.646-2.188l1.037-1.269
	v9.217L77.012,114.049L77.012,114.049z M65.146,112.09h9.907v-3.916c-1.268,0.92-2.766,0.689-4.493,0.689
	c-4.377,0-6.797-3.34-6.797-7.717c0-2.42,0.346-3.918,2.188-5.416c-2.074-1.035-4.147-2.765-5.415-4.724l-0.115-0.114
	c-1.611-2.765-2.072-5.99-1.15-9.102c0.92-3.109,2.879-5.646,5.76-7.373l2.072-1.268l-0.114-0.114
	c-0.576,0.229-1.267,0.346-1.958,0.346c-1.959,0-3.803-1.037-4.725-2.65c-1.382-2.304-1.035-5.184,0.922-7.026l-0.114-0.115
	l-2.073,1.267c-5.529,3.342-9.331,8.642-10.943,14.747c-1.613,6.221-0.691,12.557,2.648,17.971
	c3.227,5.299,7.834,8.756,13.594,10.254l0.691,0.23v4.03L65.146,112.09L65.146,112.09z M100.051,120.27H43.832v-2.766
	c0-2.879,2.306-5.184,5.185-5.184h45.966c2.881,0,5.186,2.305,5.186,5.184v2.766H100.051z M45.791,118.311h52.301v-0.807
	c0-1.729-1.383-3.225-3.225-3.225H49.017c-1.729,0-3.227,1.381-3.227,3.225L45.791,118.311L45.791,118.311z"/>
<text transform="matrix(1 0 0 1 68.4004 132.4805)" display="none" enable-background="new    " font-family="'HelveticaNeue-Bold'" font-size="5.76">Created by dan garzi</text>
<text transform="matrix(1 0 0 1 68.4004 138.2402)" display="none" enable-background="new    " font-family="'HelveticaNeue-Bold'" font-size="5.76">from the Noun Project</text>
</svg>
