<?xml version="1.0" encoding="utf-8"?>
<!-- Generator: Adobe Illustrator 16.0.0, SVG Export Plug-In . SVG Version: 6.00 Build 0)  -->
<!DOCTYPE svg PUBLIC "-//W3C//DTD SVG 1.1//EN" "http://www.w3.org/Graphics/SVG/1.1/DTD/svg11.dtd">
<svg version="1.1" id="Layer_1" xmlns="http://www.w3.org/2000/svg" xmlns:xlink="http://www.w3.org/1999/xlink" x="0px" y="0px"
	 width="108px" height="108px" viewBox="18 26.917 108 108" enable-background="new 18 26.917 108 108" xml:space="preserve">
<path d="M102.674,83.063c-0.188-0.654-0.841-1.119-1.494-1.213l-11.951-1.589l7.936-36.322c0.094-0.56,0-1.12-0.373-1.587
	c-0.373-0.373-0.933-0.653-1.494-0.653H48.608c-0.56,0-1.121,0.28-1.4,0.653c-0.374,0.467-0.467,1.027-0.374,1.587l8.03,36.229
	l-12.046,1.588c-0.746,0.094-1.308,0.561-1.494,1.213c-0.186,0.654,0,1.401,0.467,1.962l14.1,13.54l-3.548,19.422
	c-0.093,0.747,0.186,1.4,0.747,1.867c0.561,0.468,1.401,0.468,1.96,0.094l16.9-9.339l16.997,9.433
	c0.28,0.187,0.56,0.187,0.934,0.187c0.373,0,0.747-0.094,1.12-0.374c0.56-0.467,0.84-1.12,0.746-1.867l-3.548-19.422l14.1-13.54
	C102.674,84.464,102.86,83.717,102.674,83.063z M73.821,45.434h19.142l-7.564,34.269l-3.454-0.467l-8.123-17.461V45.434
	L73.821,45.434z M50.943,45.434h19.142v16.341l-8.123,17.461l-3.456,0.467L50.943,45.434z M84.839,96.51
	c-0.466,0.468-0.652,1.027-0.56,1.682l2.988,16.527l-14.379-8.031c-0.281-0.187-0.561-0.187-0.935-0.187s-0.654,0.094-0.934,0.187
	l-14.473,8.031l2.987-16.527c0.093-0.655-0.093-1.214-0.561-1.682L47.116,84.932l16.341-2.147c0.655-0.093,1.214-0.467,1.4-1.027
	l7.097-15.127l7.004,15.127c0.28,0.561,0.841,0.933,1.401,1.027l16.34,2.147L84.839,96.51z"/>
<text transform="matrix(1 0 0 1 68.4004 132.4805)" display="none" enable-background="new    " font-family="'HelveticaNeue-Bold'" font-size="5.76">Created by Bryn Taylor</text>
<text transform="matrix(1 0 0 1 68.4004 138.2402)" display="none" enable-background="new    " font-family="'HelveticaNeue-Bold'" font-size="5.76">from the Noun Project</text>
</svg>
